<svg width="18" height="19" viewBox="0 0 18 19" fill="none" xmlns="http://www.w3.org/2000/svg">
<path d="M5.83243 8.08941C4.67596 7.00269 4.15754 5.7085 4.32703 4.19697C4.45663 3.08062 4.94514 2.12233 5.81249 1.3715C7.53722 -0.120268 10.0994 -0.120268 11.7843 1.38138C13.7582 3.13989 13.7682 5.39236 11.7643 8.16844C12.4622 8.32651 13.1301 8.51422 13.7981 8.63277C16.1609 9.05758 17.8756 11.0631 17.8657 13.4242C17.8557 15.7261 16.111 17.7612 13.7582 18.1366C13.2298 18.2255 12.6715 18.1465 12.1332 18.1465C11.555 18.1465 10.9767 18.107 10.4085 18.1564C7.12847 18.4626 3.99803 17.8402 0.957318 16.6646C0.289359 16.4078 -0.0097286 15.9138 0.000240948 15.2025C0.0600583 11.972 2.1437 9.22552 5.2542 8.27711C5.43365 8.20796 5.59316 8.15856 5.83243 8.08941ZM10.3187 9.24528C8.81332 9.02794 7.36774 9.11685 5.92215 9.51202C3.35998 10.2134 1.66516 12.1893 1.41592 14.8073C1.39598 15.0741 1.30625 15.3309 1.70503 15.4791C4.09773 16.3781 6.57018 16.9017 9.14232 16.8424C9.24202 16.8424 9.34171 16.8128 9.47132 16.793C7.38768 14.017 7.61698 11.9917 10.3187 9.24528ZM8.76348 7.75351C10.4483 7.9017 11.9238 6.27162 11.9039 4.73045C11.8939 3.0411 10.5081 1.62836 8.81332 1.62836C7.05868 1.62836 5.69286 2.98182 5.68289 4.73045C5.68289 6.41981 7.03874 7.75351 8.76348 7.75351ZM16.4699 13.3748C16.46 11.4681 14.8948 9.91707 12.9806 9.92695C11.0266 9.93683 9.48129 11.4879 9.49126 13.4341C9.50123 15.2815 11.0664 16.8424 12.9208 16.8424C14.8648 16.8326 16.4799 15.2716 16.4699 13.3748Z" fill="#C4C4C4" fill-opacity="0.984375"/>
<path d="M13.6785 14.0761C13.6785 14.5602 13.6884 14.9751 13.6785 15.3802C13.6685 15.8247 13.3794 16.1409 13.0006 16.1508C12.6018 16.1606 12.2927 15.8346 12.2828 15.3703C12.2728 14.9653 12.2828 14.5503 12.2828 14.0761C11.8441 14.0761 11.4354 14.086 11.0266 14.0761C10.5182 14.0662 10.1792 13.7699 10.1892 13.3648C10.1991 12.9696 10.5281 12.7029 11.0166 12.693C11.4154 12.6831 11.8142 12.693 12.2828 12.693C12.2828 12.2682 12.2828 11.8632 12.2828 11.4581C12.2927 10.9444 12.5719 10.6085 12.9906 10.6184C13.3993 10.6184 13.6785 10.9641 13.6785 11.4779C13.6785 11.8632 13.6785 12.2583 13.6785 12.693C14.1371 12.693 14.5458 12.6831 14.9546 12.693C15.4331 12.7029 15.7621 12.9894 15.7621 13.3747C15.7621 13.7699 15.4431 14.0564 14.9645 14.0662C14.5558 14.0761 14.147 14.0761 13.6785 14.0761Z" fill="#C4C4C4" fill-opacity="0.984375"/>
</svg>
