<svg width="20" height="17" viewBox="0 0 20 17" fill="none" xmlns="http://www.w3.org/2000/svg">
<path d="M19.1692 7.55276L17.5222 6.17602V1.61091C17.5222 1.32044 17.2655 1.08492 16.9488 1.08492H12.9842C12.6675 1.08492 12.4108 1.32041 12.4108 1.61091V1.90343L10.4217 0.240739C10.0377 -0.080258 9.45873 -0.080223 9.07493 0.240704L0.327401 7.55279C0.0198717 7.8099 -0.0817623 8.20603 0.0684991 8.56196C0.218799 8.91789 0.584742 9.14785 1.00084 9.14785H2.39793V16.474C2.39793 16.7644 2.65463 17 2.97129 17H7.76599C8.08262 17 8.33935 16.7645 8.33935 16.474V12.0258H11.1573V16.474C11.1573 16.7645 11.414 17 11.7306 17H16.5251C16.8418 17 17.0985 16.7645 17.0985 16.474V9.14789H18.4959C18.9119 9.14789 19.2779 8.91789 19.4282 8.562C19.5784 8.20603 19.4768 7.8099 19.1692 7.55276ZM16.5251 8.09592C16.2085 8.09592 15.9518 8.33141 15.9518 8.62191V15.948H12.304V11.4998C12.304 11.2093 12.0473 10.9738 11.7307 10.9738H7.76599C7.44936 10.9738 7.19263 11.2093 7.19263 11.4998V15.948H3.54462V8.62191C3.54462 8.33144 3.28792 8.09592 2.97126 8.09592H1.38018L9.74837 1.10099L12.5981 3.48309C12.7659 3.62338 13.0082 3.65954 13.2159 3.57545C13.4236 3.49127 13.5576 3.30256 13.5576 3.09429V2.13689H16.3755V6.40832C16.3755 6.55633 16.4435 6.69743 16.5627 6.79713L18.1165 8.09592H16.5251Z" fill="#4D4D4D"/>
</svg>
