<svg width="14" height="15" viewBox="0 0 14 15" fill="none" xmlns="http://www.w3.org/2000/svg">
<path d="M12.7997 8.58802C14.7054 6.25506 14.3084 2.94376 11.8469 1.1376C9.38545 -0.668563 5.89175 -0.292279 3.9861 2.04068C2.31865 3.99736 2.39806 6.7066 3.9861 8.58802L0.254197 13.0282C-0.142813 13.4797 -0.0634113 14.157 0.413002 14.5333L0.73061 14.7591C1.20702 15.1354 1.92164 15.0601 2.31865 14.6086L6.05055 10.1684C8.35322 11.1467 11.2117 10.62 12.7997 8.58802ZM6.28876 7.83545C4.85952 6.78186 4.62132 4.74992 5.73295 3.3953C6.84458 2.04068 8.98843 1.73965 10.4971 2.8685C11.9263 3.9221 12.2439 5.95403 11.0529 7.38391C9.86186 8.66328 7.7974 8.9643 6.28876 7.83545Z" fill="#C4C4C4"/>
</svg>
