<svg width="17" height="15" viewBox="0 0 17 15" fill="none" xmlns="http://www.w3.org/2000/svg">
<path d="M14.3438 0H2.65625C1.19159 0 0 1.15768 0 2.58064V10.0322C0 11.4552 1.19159 12.6129 2.65625 12.6129H7.23828C7.60504 12.6129 7.90234 12.324 7.90234 11.9677C7.90234 11.6114 7.60504 11.3226 7.23828 11.3226H2.65625C1.92392 11.3226 1.32812 10.7437 1.32812 10.0322V2.71735L7.09733 6.20266C7.53 6.46405 8.0149 6.5947 8.5 6.5947C8.98496 6.5947 9.47013 6.46399 9.90267 6.2027L15.6719 2.71735V6.61289C15.6719 6.96921 15.9692 7.25805 16.3359 7.25805C16.7027 7.25805 17 6.96921 17 6.61289V2.58064C17 1.15768 15.8084 0 14.3438 0ZM9.20135 5.10689C8.76875 5.36828 8.23129 5.36828 7.79868 5.10689L1.88258 1.53284C2.10063 1.38045 2.36775 1.29032 2.65625 1.29032H14.3438C14.6323 1.29032 14.8994 1.38045 15.1174 1.53287L9.20135 5.10689ZM16.5643 11.8189C16.4914 11.7899 16.0413 11.5906 16.0413 11.087V10.1187C16.0413 8.75666 15.0584 7.60102 13.7461 7.29528V6.87095C13.7461 6.51463 13.4488 6.22579 13.082 6.22579C12.7153 6.22579 12.418 6.51463 12.418 6.87095V7.28782C11.0891 7.58166 10.0896 8.74521 10.0896 10.1187V11.0871C10.0896 11.5906 9.63947 11.7899 9.56652 11.8189C9.29565 11.9066 9.13086 12.147 9.13086 12.4248C9.13086 12.8366 9.2816 13.286 9.53405 13.627C9.88152 14.0964 10.3998 14.3548 10.9935 14.3548H12.418C12.418 14.7106 12.7159 15 13.082 15C13.4482 15 13.7461 14.7106 13.7461 14.3548H15.1373C15.731 14.3548 16.2493 14.0964 16.5968 13.627C16.8493 13.2859 17 12.8365 17 12.4248C17 12.147 16.8352 11.9066 16.5643 11.8189ZM15.1373 13.0645H10.9935C10.7465 13.0645 10.6132 12.9118 10.5415 12.7557C10.9811 12.4416 11.4177 11.8975 11.4177 11.087V10.1187C11.4177 9.24146 12.1512 8.51827 13.0528 8.50653C13.057 8.5065 13.0612 8.5064 13.0654 8.50627C13.0696 8.5064 13.0738 8.5065 13.078 8.50653C13.9796 8.51827 14.7131 9.24146 14.7131 10.1187V11.087C14.7131 11.8975 15.1498 12.4416 15.5894 12.7557C15.5176 12.9118 15.3843 13.0645 15.1373 13.0645Z" fill="#C4C4C4"/>
</svg>
