<svg width="20" height="19" viewBox="0 0 20 19" fill="none" xmlns="http://www.w3.org/2000/svg">
<path d="M12.9121 11.8623L19.4784 15.9759V7.5752L12.9121 11.8623Z" fill="#C4C4C4"/>
<path d="M0 7.5752V15.9759L6.56641 11.8623L0 7.5752Z" fill="#C4C4C4"/>
<path d="M18.2608 7.36379H1.21743C0.608736 7.36379 0.12939 6.9151 0.0380859 6.33822L9.73914 0L19.4402 6.33444C19.3489 6.9151 18.8695 7.36379 18.2608 7.36379Z" fill="#C4C4C4"/>
<path d="M11.7973 12.5936L10.0739 13.7172C9.9712 13.7851 9.85707 13.8153 9.73914 13.8153C9.6212 13.8153 9.50707 13.7813 9.40435 13.7172L7.68099 12.5898L0.0380859 17.3822C0.133194 17.9553 0.61254 18.4002 1.21743 18.4002H18.2608C18.8657 18.4002 19.3451 17.9553 19.4402 17.3822L11.7973 12.5936Z" fill="#C4C4C4"/>
</svg>
